<svg width="74" height="70" viewBox="0 0 74 70" fill="none" xmlns="http://www.w3.org/2000/svg">
<path fill-rule="evenodd" clip-rule="evenodd" d="M25.3638 0.197076C24.7354 0.474657 24.4814 0.788705 21.2477 5.28578C19.6358 7.52745 18.2941 9.38686 18.2661 9.41789C18.2381 9.44878 15.8883 10.2054 13.0443 11.0993C10.2002 11.9931 7.71067 12.8433 7.51191 12.9885C7.31315 13.1338 7.03013 13.4562 6.88283 13.7049C6.63392 14.1255 6.61643 14.5449 6.63247 19.6964L6.64982 25.2356L3.47175 29.4911C1.72372 31.8316 0.226473 33.8706 0.144513 34.0222C-0.0481711 34.3785 -0.0481711 35.685 0.144513 36.0412C0.226473 36.1928 1.72401 38.2318 3.47233 40.5723L6.65112 44.8279L6.63045 50.3623C6.61093 55.5328 6.62741 55.927 6.88008 56.3539C7.02883 56.6051 7.31315 56.9302 7.51191 57.076C7.71067 57.2219 10.203 58.0712 13.0503 58.9633L18.2275 60.5855L21.2558 64.791C22.9215 67.104 24.5021 69.1985 24.7682 69.4454C25.7085 70.3174 25.8198 70.3 31.7226 68.3533L37 66.6129L42.2774 68.3533C48.0524 70.2578 48.247 70.2918 49.1356 69.5519C49.4372 69.3009 54.5776 62.3595 55.6641 60.7362C55.7134 60.6627 58.0872 59.8696 60.9394 58.9736C63.7915 58.0778 66.288 57.2246 66.4872 57.0778C66.6866 56.9309 66.9687 56.6094 67.1143 56.3633C67.3594 55.9491 67.3782 55.5032 67.3654 50.3719L67.3515 44.8279L70.529 40.5723C72.2766 38.2318 73.7735 36.1928 73.8555 36.0412C74.0482 35.685 74.0482 34.3785 73.8555 34.0222C73.7735 33.8706 72.2766 31.8316 70.529 29.4911L67.3515 25.2356L67.3654 19.6915C67.3782 14.5602 67.3594 14.1143 67.1143 13.7002C66.9687 13.454 66.6845 13.131 66.4829 12.9824C66.2812 12.8337 63.7882 11.9833 60.9427 11.0928L55.7693 9.47352L52.7426 5.27019C51.0778 2.95844 49.4979 0.864929 49.2318 0.618095C48.2915 -0.253976 48.1802 -0.236529 42.2774 1.71011L37 3.45054L31.7601 1.72241C28.8781 0.771973 26.3575 -0.0029945 26.1588 8.69925e-06C25.96 0.00315491 25.6023 0.0918207 25.3638 0.197076ZM31.7988 6.50879C34.3055 7.34011 36.6115 8.02455 36.9326 8.03256C37.3195 8.04243 39.0885 7.52874 42.1853 6.50751C44.7535 5.6606 46.9045 5.02307 46.9655 5.091C47.0265 5.15879 48.3625 7.00218 49.9341 9.18736C51.506 11.3725 52.926 13.2312 53.0897 13.318C53.2534 13.4047 54.4649 13.8139 55.7819 14.2273C57.0989 14.6407 59.2336 15.3106 60.5254 15.7159L62.8744 16.4528V21.6346C62.8744 26.2621 62.9005 26.8544 63.1184 27.1701C63.2525 27.3646 64.6207 29.2131 66.1587 31.2777L68.955 35.0317L66.1587 38.7857C64.6207 40.8505 63.2525 42.6989 63.1184 42.8934C62.9005 43.209 62.8744 43.8013 62.8744 48.4297V53.6124L60.3086 54.4169C54.221 56.3257 53.3537 56.6057 53.0804 56.7504C52.9218 56.8344 51.506 58.6909 49.9341 60.8761C48.3625 63.0613 47.0265 64.9047 46.9655 64.9725C46.9045 65.0404 44.7571 64.4041 42.1934 63.5587C39.6296 62.7132 37.2927 62.0215 37 62.0215C36.7073 62.0215 34.3704 62.7132 31.8066 63.5587C29.2429 64.4041 27.0955 65.0404 27.0345 64.9725C26.9735 64.9047 25.6371 63.0606 24.0646 60.8745C22.3616 58.507 21.0527 56.8232 20.8274 56.7105C20.6194 56.6064 19.4734 56.218 18.2808 55.8473C17.0883 55.4766 14.9905 54.8199 13.6191 54.3879L11.1256 53.6023V48.4095V43.2169L10.143 41.8772C9.60253 41.1404 8.23625 39.2987 7.10688 37.7847L5.05341 35.0317L7.10688 32.2788C8.23625 30.7646 9.60253 28.9231 10.143 28.1863L11.1256 26.8466V21.6508V16.4551L13.6191 15.6721C14.9905 15.2414 17.0883 14.5864 18.2808 14.2163C19.4734 13.8463 20.6331 13.4392 20.858 13.3116C21.0981 13.1755 22.469 11.4124 24.1799 9.03977C25.7821 6.81769 27.128 4.99976 27.1706 4.99976C27.2131 4.99976 29.2959 5.67891 31.7988 6.50879ZM48.564 24.7498C48.3652 24.8266 44.7546 28.2977 40.5406 32.4636L32.8787 40.0376L29.338 36.5306C25.5802 32.8084 25.2905 32.598 24.2314 32.8235C22.9942 33.0871 22.4005 33.8131 22.4005 35.0629C22.4005 35.7042 22.4767 35.9484 22.8194 36.4046C23.0498 36.7114 25.0825 38.778 27.3366 40.9972C32.0665 45.654 32.35 45.8409 33.7884 45.251C34.4371 44.985 51.044 28.6388 51.3824 27.933C51.6946 27.282 51.659 26.192 51.3069 25.6206C50.8104 24.815 49.4846 24.3941 48.564 24.7498Z" fill="#D59D48"/>
</svg>
