<svg width="115" height="70" viewBox="0 0 115 70" fill="none" xmlns="http://www.w3.org/2000/svg">
<path fill-rule="evenodd" clip-rule="evenodd" d="M39.3451 0.543009C38.4617 0.968733 36.0207 3.31828 27.9534 11.5077C18.1068 21.5035 17.6713 21.9812 17.3303 23.1652C17.1347 23.8441 16.9744 24.6113 16.9739 24.8699C16.9732 25.3243 16.8597 25.3402 13.5453 25.3443C9.55343 25.3491 7.41238 25.7475 4.90802 26.9513C2.96032 27.8875 1.3773 29.4181 0.580283 31.1355C0.061828 32.2529 0 32.6643 0 35C0 37.3357 0.061828 37.7471 0.580283 38.8645C1.3773 40.5819 2.96032 42.1125 4.90802 43.0487C7.38496 44.2393 9.54601 44.6403 13.545 44.6509C16.8574 44.6598 16.9728 44.6759 16.9737 45.1301C16.9741 45.3887 17.1347 46.1559 17.3303 46.8348C17.6713 48.0188 18.1068 48.4965 27.9534 58.4923C36.0207 66.6817 38.4617 69.0313 39.3451 69.457L40.4692 69.9989L75.3177 70C98.6372 70.0005 110.443 69.9232 111.004 69.7657C112.326 69.3943 113.693 68.2091 114.382 66.8358L115 65.6032V35V4.39679L114.382 3.16417C113.693 1.79086 112.326 0.605742 111.004 0.234343C110.443 0.0768273 98.6372 -0.000452596 75.3177 1.99376e-06L40.4692 0.00113784L39.3451 0.543009ZM110.401 4.64591L110.953 5.20369V35V64.7963L110.401 65.3541L109.849 65.9121H75.5018H41.1543L31.1766 55.8325C21.4489 46.0054 21.1962 45.7276 21.091 44.7519L20.9828 43.7509L22.6637 42.9958C23.6016 42.5744 24.8735 41.7616 25.5417 41.1565L26.7389 40.0725L27.7509 40.7212C29.0189 41.5343 30.009 41.8159 31.6047 41.8175C33.5499 41.8195 34.8869 41.2454 36.3265 39.79C38.9572 37.1304 39.0696 33.2262 36.5956 30.4441C35.1662 28.8369 34.1331 28.3525 31.8646 28.2268C30.1257 28.1302 29.9106 28.1705 28.5542 28.8455C26.2483 29.9932 25.1091 31.696 24.7379 34.55C24.5228 36.2053 23.7363 37.523 22.4492 38.3849C21.8689 38.7733 21.3064 39.0913 21.1989 39.0913C21.0914 39.0913 21.033 35.7771 21.0689 31.7017L21.1339 24.3124L31.144 14.2L41.1543 4.0879H75.5018H109.849L110.401 4.64591ZM44.6459 16.0411L43.9541 16.6296V31.0119C43.9541 45.0792 43.9639 45.4069 44.4064 45.9756C45.2988 47.1225 47.2876 46.8682 47.7858 45.5435C47.9077 45.2194 48.001 41.5781 48.001 37.1445V29.3176H51.1659H54.3308L54.988 28.6532C55.6908 27.9427 55.8266 27.132 55.3837 26.291C54.8744 25.3245 54.5446 25.2411 51.2048 25.2336L48.001 25.2263V22.3851V19.544H52.13C55.9667 19.544 56.301 19.5105 56.8514 19.0728C57.308 18.7098 57.4438 18.4013 57.4438 17.7276C57.4438 15.5522 57.1445 15.4526 50.6148 15.4526H45.3374L44.6459 16.0411ZM62.2776 15.7022C61.2391 16.3061 61.2659 15.8975 61.2659 31.1367C61.2659 45.1744 61.2787 45.611 61.7056 46.0743C62.5971 47.0419 64.4796 46.8552 64.9994 45.7481C65.1042 45.5247 65.2429 43.1428 65.3076 40.4551L65.4252 35.5682L68.3212 40.8624C70.5956 45.0201 71.3612 46.2318 71.8866 46.5066C72.6769 46.9196 73.5224 46.7673 74.2498 46.0811C75.2768 45.1119 75.065 44.5441 70.7424 36.6758L66.731 29.3738L68.2614 29.2631C69.292 29.1885 70.1961 28.9524 71.0293 28.5403C76.1583 26.0032 75.9719 18.4677 70.7202 16.0532C69.855 15.6554 69.1587 15.5717 66.2121 15.5117C63.8743 15.4642 62.5793 15.527 62.2776 15.7022ZM79.5233 15.6908C78.3724 16.1577 78.3529 16.4152 78.3529 31.0949C78.3529 40.4701 78.4305 44.9307 78.602 45.4285C79.0312 46.6732 79.631 46.8193 84.3109 46.8193C88.9515 46.8193 89.5921 46.6684 90.0026 45.4781C90.2868 44.6537 90.129 43.915 89.5242 43.2394C89.0885 42.7528 88.9041 42.728 85.7331 42.728H82.3998V37.9548V33.1816H84.6654C86.8696 33.1816 86.9488 33.1637 87.5882 32.5173C88.2867 31.8111 88.4133 31.0755 87.9958 30.1488C87.6219 29.3194 86.871 29.0903 84.5251 29.0903H82.3998V24.3171V19.544H85.6295C88.5066 19.544 88.921 19.4949 89.4244 19.0946C90.0912 18.5643 90.3084 17.6808 89.9954 16.773C89.5905 15.5988 88.9423 15.4511 84.2659 15.467C81.9411 15.4749 79.8071 15.5756 79.5233 15.6908ZM94.8778 15.7081C93.8398 16.2984 93.8661 15.897 93.8661 31.1399V45.6035L94.4457 46.1547C95.0134 46.6943 95.1175 46.7071 99.4481 46.7691C103.528 46.8275 103.927 46.7973 104.59 46.382C105.488 45.819 105.763 44.698 105.248 43.6924C105.056 43.3172 104.736 42.9469 104.535 42.8692C104.335 42.7917 102.763 42.728 101.042 42.728H97.913V37.9548V33.1816H99.9477C102.063 33.1816 103.123 32.8639 103.394 32.1486C103.713 31.3083 103.531 30.2032 102.982 29.6483C102.469 29.1299 102.27 29.0903 100.171 29.0903H97.913V24.3171V19.544H101.153H104.393L104.997 18.8177C105.487 18.2302 105.577 17.9402 105.474 17.2971C105.404 16.8603 105.139 16.292 104.884 16.0345C104.452 15.5967 104.125 15.5627 99.8744 15.5092C96.8226 15.4711 95.1795 15.5363 94.8778 15.7081ZM69.0247 19.8713C69.9301 20.2536 70.7071 21.4146 70.7071 22.3851C70.7071 23.3557 69.9301 24.5167 69.0247 24.899C68.5987 25.079 67.5892 25.2263 66.7814 25.2263H65.3128V22.3851V19.544H66.7814C67.5892 19.544 68.5987 19.6912 69.0247 19.8713ZM16.272 29.4597L16.9746 29.6017V35V40.3983L16.272 40.5403C15.0896 40.7794 11.7858 40.6835 9.97926 40.3578C5.94178 39.6298 3.93451 37.8507 3.93451 35C3.93451 32.1831 5.94583 30.3723 9.87606 29.6506C11.5929 29.3354 15.1346 29.2297 16.272 29.4597ZM33.3343 33.0505C34.0958 33.7562 34.174 33.9376 34.174 35C34.174 36.0624 34.0958 36.2438 33.3343 36.9495C32.3929 37.8216 31.36 37.9726 30.2617 37.3982C28.4379 36.4447 28.4105 33.6046 30.2154 32.6127C31.2825 32.0263 32.3979 32.1829 33.3343 33.0505ZM42.8983 52.719C41.7181 53.4466 41.6725 55.1911 42.8103 56.0743C43.0862 56.2884 49.2486 56.353 69.9389 56.3584L96.7104 56.3657L97.1735 55.8543C97.8316 55.1274 97.9969 54.3914 97.6769 53.6107C97.0989 52.2001 98.6455 52.2744 69.8768 52.2753C44.2443 52.276 43.5997 52.2867 42.8983 52.719ZM102.859 52.4231C101.455 52.9911 101.036 54.7706 102.062 55.8077C102.557 56.3082 102.801 56.3657 104.433 56.3657C106.065 56.3657 106.309 56.3082 106.804 55.8077C107.577 55.0267 107.567 53.6905 106.783 52.9458C106.314 52.5006 105.936 52.3912 104.703 52.3442C103.875 52.3126 103.045 52.3481 102.859 52.4231Z" fill="#D59D48"/>
</svg>
