<svg width="63" height="70" viewBox="0 0 63 70" fill="none" xmlns="http://www.w3.org/2000/svg">
<path fill-rule="evenodd" clip-rule="evenodd" d="M28.2168 0.1858C19.2016 1.7292 12.481 8.57018 11.1275 17.5812C11.0391 18.1693 10.981 20.8895 10.9827 24.3505C10.9856 29.8675 10.9986 30.1647 11.2632 30.7478C11.6916 31.692 12.165 32.2276 12.974 32.6841L13.7158 33.1026L13.7171 34.3544C13.7182 35.3836 13.7762 35.7306 14.0434 36.3041C14.7575 37.8373 16.1034 38.6798 17.8417 38.682L18.8895 38.6834L19.4542 39.7118C19.7647 40.2774 20.4163 41.2325 20.9022 41.8342L21.7858 42.9282L20.6381 45.2161L19.4903 47.504L15.8165 48.7241C10.3154 50.551 8.31359 51.6887 5.65101 54.501C2.26954 58.0729 0.292482 62.6525 0.0818075 67.4017L0 69.2478L0.378394 69.6239L0.756925 70H31.5H62.2431L62.6216 69.6239L63 69.2478L62.9182 67.4017C62.7075 62.6525 60.7305 58.0729 57.349 54.501C54.6864 51.6887 52.6846 50.551 47.1835 48.7241L43.5097 47.504L42.3589 45.2102L41.2083 42.9165L41.8736 42.1173C43.5786 40.0691 44.6242 37.8187 45.1688 35.0252L45.5221 33.2132L47.2322 33.2118C48.7436 33.2108 49.0232 33.1729 49.6402 32.8857C50.529 32.472 51.2788 31.7225 51.6926 30.834L52.0175 30.1363L52.0189 24.3505C52.0197 20.8988 51.9606 18.1678 51.8725 17.5812C51.2108 13.1759 49.3135 9.34147 46.22 6.1577C43.0487 2.89353 38.9772 0.814594 34.415 0.129731C33.1076 -0.0665109 29.5 -0.0339635 28.2168 0.1858ZM34.4575 3.06529C41.4008 4.27323 46.9355 9.43733 48.6677 16.3241C48.838 17.0011 49.0201 17.9088 49.0722 18.3412L49.1671 19.1276H47.8779H46.5887L46.5084 17.931C46.3698 15.8637 45.5252 13.462 44.2766 11.5844C42.4781 8.88006 39.7654 6.89973 36.4933 5.90238C35.2785 5.53205 35.2118 5.52699 31.5 5.52699C27.7882 5.52699 27.7215 5.53205 26.5067 5.90238C23.2346 6.89973 20.5219 8.88006 18.7234 11.5844C17.4748 13.462 16.6302 15.8637 16.4916 17.931L16.4113 19.1276H15.1319C14.1981 19.1276 13.8532 19.0814 13.8553 18.9566C13.8761 17.6432 14.694 14.7015 15.5271 12.9433C16.4307 11.0367 17.4135 9.66202 19.038 8.03287C21.8473 5.21588 25.0901 3.58796 29.1744 2.94495C30.1069 2.79807 33.346 2.87192 34.4575 3.06529ZM35.111 8.54296C36.3324 8.81073 38.5753 9.89218 39.6017 10.7082C41.3233 12.0771 42.8366 14.471 43.4031 16.7221C43.735 18.0407 43.789 20.3584 43.4879 20.3584C43.3848 20.3584 42.5805 20.2334 41.7008 20.0807C37.5368 19.3579 33.6273 17.4637 30.5422 14.6742L29.3796 13.623L27.8747 13.6983C24.955 13.8446 22.1707 15.0814 20.0991 17.1524C19.2067 18.0443 19.2156 18.0696 19.7582 16.1874C20.9803 11.9469 24.8079 8.78639 29.2908 8.31595C30.748 8.16292 33.9472 8.28778 35.111 8.54296ZM28.5718 16.8216C29.0611 17.3706 31.191 18.9431 32.5151 19.7328C35.1887 21.3278 38.1401 22.4023 41.3326 22.9433C42.2638 23.1011 43.1773 23.2302 43.3625 23.2302C43.6739 23.2302 43.6937 23.269 43.6246 23.743C43.5834 24.0251 43.5124 24.902 43.4666 25.6918C43.3074 28.4424 42.6403 33.3379 42.1528 35.3329C41.8077 36.7447 40.7244 38.922 39.807 40.0474C37.7242 42.6023 34.8252 44.0211 31.6368 44.0462C29.3467 44.0639 27.668 43.5904 25.8246 42.4064C24.7579 41.7211 23.2998 40.3196 22.6272 39.333L22.1843 38.6834H23.4775H24.7706L25.1892 39.4249C25.6458 40.2336 26.1817 40.7068 27.1262 41.1351C27.6656 41.3796 28.0213 41.4127 30.132 41.4141C32.367 41.4157 32.5724 41.3942 33.224 41.0909C34.7505 40.3804 35.6013 39.0292 35.6013 37.3158C35.6013 35.6024 34.7505 34.2513 33.224 33.5407C32.5724 33.2374 32.367 33.216 30.132 33.2176C28.0213 33.219 27.6656 33.2521 27.1262 33.4966C26.1817 33.9249 25.6458 34.3981 25.1892 35.2068L24.7706 35.9483H22.8737H20.9768L20.8326 35.4132C20.4189 33.8773 19.6967 28.0836 19.3984 23.9074L19.3148 22.7386L20.3918 21.3091C22.3827 18.6666 24.0451 17.4035 26.3141 16.8096C27.6801 16.452 28.2449 16.455 28.5718 16.8216ZM16.5084 23.6746C16.599 25.4612 16.9372 29.3536 17.0684 30.1188L17.1357 30.5116L15.9386 30.4522C13.7698 30.3444 13.7947 30.3987 13.742 25.6576L13.6999 21.8626H15.0583H16.4166L16.5084 23.6746ZM49.258 25.6576C49.2053 30.3987 49.2302 30.3444 47.0614 30.4522L45.8643 30.5116L45.9316 30.1188C46.062 29.3588 46.3979 25.4664 46.4877 23.6746L46.5787 21.8626H47.9393H49.3001L49.258 25.6576ZM17.6591 34.1363C17.7432 34.6441 17.8507 35.2521 17.8982 35.4876C17.979 35.8896 17.9629 35.9115 17.6318 35.8483C16.8703 35.7028 16.4518 34.9561 16.4518 33.7431C16.4518 33.2194 16.4579 33.2132 16.9789 33.2132H17.5061L17.6591 34.1363ZM31.6178 36.0334C33.0835 36.3264 33.0835 38.3052 31.6178 38.5983C31.3837 38.6451 30.715 38.6834 30.132 38.6834C28.7324 38.6834 28.2899 38.5826 27.8767 38.1693C27.2096 37.5025 27.6054 36.2244 28.5351 36.0435C29.022 35.9486 31.1589 35.9416 31.6178 36.0334ZM40.7954 48.8146C40.8058 49.13 39.59 52.1666 38.6943 54.0626L37.9216 55.6981L35.6705 53.4509L33.4193 51.2036L33.8687 50.7214C34.1159 50.4561 35.3891 49.1107 36.6983 47.7316L39.0786 45.224L39.9334 46.911C40.4036 47.8389 40.7914 48.6955 40.7954 48.8146ZM26.5344 48.5638L29.2956 51.3331L27.1933 53.5212L25.0911 55.7092L24.312 54.0682C23.4811 52.3176 22.1975 49.1502 22.1975 48.8505C22.1975 48.636 23.595 45.7946 23.7005 45.7946C23.7405 45.7946 25.0157 47.0408 26.5344 48.5638ZM31.6648 46.9319L33.4028 46.9309L32.4355 47.9695C31.9033 48.5409 31.428 49.024 31.3791 49.0433C31.3302 49.0624 30.768 48.5488 30.1297 47.9019C29.0016 46.7584 28.9826 46.7285 29.448 46.8294C29.7113 46.8864 30.7089 46.9326 31.6648 46.9319ZM20.3519 52.2562C21.8077 55.925 23.7965 59.5253 26.9983 64.2874C27.7199 65.3609 28.4484 66.4701 28.6168 66.7521L28.9231 67.2649H15.9158C4.99806 67.2649 2.90841 67.2348 2.90841 67.0777C2.90841 66.5656 3.35767 64.421 3.676 63.4138C5.02528 59.1441 7.97172 55.4718 11.7321 53.3732C12.5908 52.894 18.9387 50.6109 19.4717 50.5896C19.6224 50.5835 19.8866 51.0837 20.3519 52.2562ZM46.9009 51.6814C48.748 52.3025 50.6204 53.0263 51.1995 53.3428C54.9782 55.4089 57.9639 59.1097 59.324 63.4138C59.6423 64.421 60.0916 66.5656 60.0916 67.0777C60.0916 67.2348 58.0019 67.2649 47.0842 67.2649H34.0769L34.3832 66.7521C34.5516 66.4701 35.2801 65.3616 36.0017 64.2889C39.1636 59.5895 41.2218 55.8643 42.6499 52.2562C43.0145 51.3347 43.3838 50.581 43.4706 50.581C43.5573 50.581 45.101 51.0761 46.9009 51.6814ZM33.8929 55.9133L36.3514 58.3737L36.1064 58.8287C35.9715 59.079 35.376 59.9872 34.783 60.8469C34.1899 61.7067 33.2301 63.1639 32.6501 64.0854C32.0701 65.0068 31.5585 65.7605 31.5135 65.7605C31.4685 65.7604 30.9501 65.0064 30.3615 64.0853C29.773 63.1639 28.711 61.555 28.0017 60.51C27.2924 59.4649 26.7119 58.5314 26.7119 58.4357C26.7119 58.2616 31.1867 53.4528 31.3487 53.4528C31.3959 53.4528 32.5408 54.5599 33.8929 55.9133ZM45.5408 54.497C45.2528 54.7849 45.1802 54.988 45.1802 55.5041C45.1802 56.0202 45.2528 56.2233 45.5408 56.5112C45.8288 56.799 46.0319 56.8716 46.5482 56.8716C47.0645 56.8716 47.2676 56.799 47.5556 56.5112C47.8436 56.2233 47.9162 56.0202 47.9162 55.5041C47.9162 54.988 47.8436 54.7849 47.5556 54.497C47.2676 54.2092 47.0645 54.1366 46.5482 54.1366C46.0319 54.1366 45.8288 54.2092 45.5408 54.497ZM50.3681 57.1346C50.0533 57.4493 49.9683 57.6563 49.9683 58.1077C49.9683 58.6427 50.046 58.7606 51.123 59.8619C52.487 61.2566 52.6611 61.4731 53.3132 62.5853C53.8798 63.5519 54.1017 63.7093 54.8976 63.7093C55.6249 63.7093 56.2611 63.1053 56.2611 62.4149C56.2611 61.2974 53.7526 57.9237 52.2255 56.9875C51.5888 56.5972 50.8471 56.6558 50.3681 57.1346Z" fill="#D59D48"/>
</svg>
