<svg width="72" height="70" viewBox="0 0 72 70" fill="none" xmlns="http://www.w3.org/2000/svg">
<path fill-rule="evenodd" clip-rule="evenodd" d="M35.6906 0.498474L35.1008 0.996948L29.7992 0.997803C26.7937 0.99823 24.284 1.05862 24.0041 1.13723C23.6458 1.23792 22.2981 2.41076 19.0858 5.41756C16.6522 7.69544 14.5797 9.66741 14.4803 9.79986C14.2247 10.14 14.2475 11.1261 14.52 11.5195C14.9994 12.2118 15.3149 12.2482 20.8326 12.2482H25.976V14.0285V15.8087L20.9427 15.8096C17.9274 15.81 15.7004 15.8691 15.3878 15.9569C14.2622 16.2732 13.8998 17.6407 14.701 18.5481L15.1117 19.0132L20.5439 19.0537L25.976 19.0941V21.012V22.9298H20.6893C14.955 22.9298 14.8008 22.949 14.4586 23.7091C14.0894 24.5285 14.379 25.5787 15.0607 25.8929C15.326 26.0152 16.9145 26.0631 20.703 26.0631H25.976V27.8433V29.6236H20.6119H15.2477L14.769 30.1078C14.3611 30.5204 14.2903 30.6905 14.2903 31.2582C14.2903 31.8045 14.3644 31.999 14.7019 32.3406L15.1134 32.7569L36.4189 32.7492L57.7245 32.7415L62.3002 29.719C66.588 26.8867 66.8872 26.6618 67.0556 26.1438C67.4109 25.0497 66.7313 24.0692 65.6175 24.0692C64.9648 24.0692 64.9157 24.0979 59.5791 27.6044L56.5062 29.6236H51.3076H46.1092V27.8433V26.0631H51.7501C55.7123 26.0631 57.4826 26.0145 57.6986 25.9001C57.8677 25.8104 60.0129 24.2716 62.4658 22.4802C66.3213 19.6647 66.9476 19.1561 67.0877 18.7267C67.431 17.674 66.7071 16.6633 65.6095 16.6633C64.9141 16.6633 65.2679 16.4353 60.2375 20.1255L56.4148 22.9298H51.262H46.1092V21.0071V19.0844H51.7915H57.474L57.9818 18.7358C58.2612 18.5441 60.3882 16.8719 62.7086 15.02C65.9142 12.4617 66.964 11.5471 67.0794 11.2125C67.4578 10.1143 66.7348 9.11453 65.5627 9.11538C64.9172 9.11595 64.8256 9.17919 60.7108 12.4623L56.5168 15.8087H51.313H46.1092V14.0285V12.2482L51.7056 12.2418C55.7585 12.2371 57.4052 12.188 57.6758 12.0638C58.0034 11.9134 65.8971 4.62883 66.7938 3.64968C67.3224 3.07231 67.2738 2.11709 66.6857 1.52191L66.2373 1.06816L60.8258 1.02486L55.4142 0.981424L54.9292 0.490783L54.444 0H45.3623H36.2804L35.6906 0.498474ZM49.7698 3.17784C49.7698 3.20248 48.3209 4.58454 46.55 6.24916C44.7791 7.91392 43.2586 9.43497 43.171 9.62938C43.0575 9.88146 43.0118 12.8024 43.0118 19.8032V29.6236H36.0426H29.0734L29.0806 20.3306L29.0878 11.0376L33.2691 7.09371L37.4505 3.14979L43.6101 3.14153C46.998 3.13697 49.7698 3.15335 49.7698 3.17784ZM31.1623 4.74092C30.8788 4.99243 29.728 6.04877 28.6051 7.08816L26.5637 8.9778L23.2875 8.93963L20.0112 8.90132L22.5313 6.58698L25.0512 4.27263L28.3647 4.27805L31.6781 4.28332L31.1623 4.74092ZM61.2403 4.53369C61.0876 4.67725 59.9387 5.73573 58.6872 6.88592L56.4119 8.97695L52.4169 8.93906L48.4221 8.90132L50.891 6.59552L53.3599 4.28958L57.4389 4.28118C61.4012 4.27292 61.5101 4.28018 61.2403 4.53369ZM29.4254 34.5656C28.4047 34.6593 26.4891 35.0414 25.2273 35.4028C23.4325 35.9168 22.2341 36.4246 18.4596 38.2706C15.3771 39.7781 15.0845 39.8936 14.9527 39.6553C14.6312 39.0742 13.6256 38.1207 12.9584 37.7645L12.2489 37.3856H7.74353H3.2382L2.49426 37.7821C1.54744 38.2868 0.775338 39.0678 0.341138 39.9601L0 40.6612V53.6928V66.7243L0.326777 67.3437C0.824334 68.2871 1.70358 69.1677 2.58465 69.6055L3.37899 70H7.74353C11.9881 70 12.1258 69.9912 12.7523 69.6788C13.7919 69.1606 14.52 68.4328 15.0141 67.4173C15.3985 66.6275 15.4803 66.274 15.548 65.111L15.6278 63.7373L18.866 63.1235C23.3015 62.2828 24.9568 62.2415 34.8775 62.7244C39.0379 62.9269 43.1561 63.0914 44.029 63.09C48.605 63.0825 53.1366 61.6607 57.0436 59.0067C57.5983 58.6298 60.8928 55.9372 64.3648 53.0233C68.8612 49.2491 70.8062 47.5284 71.1258 47.0416C71.8395 45.954 72.0579 45.0676 71.9875 43.5437C71.9133 41.9359 71.4878 40.9479 70.3787 39.8079C68.6711 38.0528 65.9282 37.5963 63.7744 38.7086C63.3633 38.9209 60.5987 41.0814 57.6311 43.5097C51.6557 48.399 50.9034 48.947 49.3168 49.566C47.7169 50.1901 46.0858 50.3977 41.6743 50.5391C38.4335 50.643 37.6772 50.631 37.4232 50.4721C37.2533 50.3655 36.8848 49.8824 36.6042 49.3983C36.0419 48.4276 36.0333 47.9414 36.5745 47.7101C36.7466 47.6366 38.788 47.2197 41.1111 46.7838C45.9157 45.882 46.6034 45.6373 47.7177 44.4321C48.0828 44.0372 48.5513 43.3477 48.7589 42.8998C49.0965 42.1712 49.1362 41.9204 49.1362 40.5188C49.1362 39.1251 49.0956 38.8657 48.7687 38.1689C48.2054 36.9683 47.3724 36.1164 46.1762 35.5186L45.1352 34.998L39.181 34.7374C33.6048 34.4933 30.7574 34.4431 29.4254 34.5656ZM39.6523 37.9431C44.2195 38.1223 44.2517 38.1257 44.8833 38.5001C45.3196 38.7588 45.6115 39.0703 45.8141 39.4937C46.1873 40.2734 46.1865 40.7659 45.8106 41.5514C45.2817 42.6566 44.9941 42.7641 40.0026 43.7243C37.5363 44.1988 35.3362 44.6822 35.1137 44.7987C33.5502 45.6165 32.692 47.4096 33.0219 49.1693C33.1985 50.1106 34.5116 52.3704 35.2337 52.9758C36.2691 53.8436 36.7261 53.8927 42.0203 53.706C47.3198 53.5192 48.6084 53.3362 50.7626 52.4638C52.5624 51.7352 53.7768 50.8589 59.6185 46.0732C62.487 43.7233 65.039 41.6884 65.2896 41.5514C66.9236 40.6574 69.1328 42.3439 68.8475 44.2678C68.7762 44.7487 68.6098 45.0546 68.1665 45.5198C67.1712 46.5642 56.392 55.5319 55.0494 56.4327C52.1566 58.3734 49.1919 59.4457 45.6868 59.8187C44.4459 59.9508 42.7165 59.9038 34.9163 59.5266C29.1451 59.2475 25.0282 59.1093 24.0515 59.1622C22.5976 59.2408 20.6452 59.5335 17.0006 60.2195L15.5574 60.4911V51.8507V43.2102L16.2262 42.9122C16.594 42.7484 18.4155 41.8755 20.274 40.9727C24.8698 38.7398 26.8926 38.0575 29.8478 37.7433C31.0093 37.6198 31.8508 37.6371 39.6523 37.9431ZM11.4729 40.6604C12.3727 41.1311 12.3192 40.3137 12.3192 53.5956C12.3192 66.8516 12.3594 66.2122 11.4997 66.6776C10.9693 66.9647 4.34595 66.9479 3.81066 66.6581C2.99646 66.2173 3.02701 66.7256 3.02701 53.6193C3.02701 45.3757 3.07432 41.4789 3.17682 41.2852C3.25918 41.1294 3.52837 40.8776 3.77518 40.7253C4.18671 40.4715 4.50575 40.4486 7.64497 40.4482C10.4056 40.4478 11.1446 40.4888 11.4729 40.6604Z" fill="#D59D48"/>
</svg>
