<svg width="113" height="70" viewBox="0 0 113 70" fill="none" xmlns="http://www.w3.org/2000/svg">
<path d="M1.88336 38.8897H13.1835C14.227 38.8897 15.0669 39.7568 15.0669 40.8327C15.0669 41.9101 14.2256 42.7772 13.1835 42.7772H1.88336C0.839836 42.7772 0 41.9101 0 40.8327C0 39.7568 0.841312 38.8882 1.88336 38.8882V38.8897ZM1.88336 23.3338H13.1835C14.227 23.3338 15.0669 24.2009 15.0669 25.2783C15.0669 26.3557 14.2256 27.2228 13.1835 27.2228H1.88336C0.839836 27.2228 0 26.3542 0 25.2783C0 24.2009 0.841312 23.3338 1.88336 23.3338ZM1.88336 7.77795H13.1835C14.227 7.77795 15.0669 8.64504 15.0669 9.72243C15.0669 10.7998 14.2256 11.6669 13.1835 11.6669H1.88336C0.839836 11.6669 0 10.7983 0 9.72243C0 8.64504 0.841312 7.77795 1.88336 7.77795ZM92.2831 50.5551C87.1024 50.5551 82.8663 54.9302 82.8663 60.2776C82.8663 65.6264 87.1024 70 92.2831 70C97.4623 70 101.7 65.6264 101.7 60.2776C101.7 54.9302 97.4623 50.5551 92.2831 50.5551ZM92.2831 54.4441C93.026 54.4405 93.7623 54.5889 94.4494 54.8808C95.1365 55.1726 95.7608 55.6022 96.2861 56.1446C96.8115 56.687 97.2275 57.3315 97.5102 58.0409C97.7929 58.7503 97.9367 59.5105 97.9331 60.2776C97.9367 61.0446 97.7929 61.8048 97.5102 62.5142C97.2275 63.2236 96.8115 63.8681 96.2861 64.4105C95.7608 64.953 95.1365 65.3825 94.4494 65.6744C93.7623 65.9662 93.026 66.1147 92.2831 66.111C91.5401 66.1147 90.8038 65.9662 90.1167 65.6744C89.4296 65.3825 88.8054 64.953 88.28 64.4105C87.7547 63.8681 87.3386 63.2236 87.0559 62.5142C86.7732 61.8048 86.6295 61.0446 86.633 60.2776C86.6295 59.5105 86.7732 58.7503 87.0559 58.0409C87.3386 57.3315 87.7547 56.687 88.28 56.1446C88.8054 55.6022 89.4296 55.1726 90.1167 54.8808C90.8038 54.5889 91.5401 54.4405 92.2831 54.4441ZM43.3158 50.5551C38.1365 50.5551 33.899 54.9302 33.899 60.2776C33.899 65.6264 38.1365 70 43.3158 70C48.4965 70 52.7325 65.6264 52.7325 60.2776C52.7325 54.9302 48.4965 50.5551 43.3158 50.5551ZM43.3158 54.4441C44.0587 54.4405 44.795 54.5889 45.4821 54.8808C46.1692 55.1726 46.7934 55.6022 47.3188 56.1446C47.8442 56.687 48.2602 57.3315 48.5429 58.0409C48.8256 58.7503 48.9693 59.5105 48.9658 60.2776C48.9693 61.0446 48.8256 61.8048 48.5429 62.5142C48.2602 63.2236 47.8442 63.8681 47.3188 64.4105C46.7934 64.953 46.1692 65.3825 45.4821 65.6744C44.795 65.9662 44.0587 66.1147 43.3158 66.111C42.5728 66.1147 41.8365 65.9662 41.1494 65.6744C40.4623 65.3825 39.8381 64.953 39.3127 64.4105C38.7873 63.8681 38.3713 63.2236 38.0886 62.5142C37.8059 61.8048 37.6622 61.0446 37.6657 60.2776C37.6622 59.5105 37.8059 58.7503 38.0886 58.0409C38.3713 57.3315 38.7873 56.687 39.3127 56.1446C39.8381 55.6022 40.4623 55.1726 41.1494 54.8808C41.8365 54.5889 42.5728 54.4405 43.3158 54.4441ZM24.4822 0C21.387 0 18.8336 2.63633 18.8336 5.83346V48.6106C18.8336 51.8078 21.387 54.4441 24.4837 54.4441H32.0171C34.5632 54.4837 34.5632 50.517 32.0171 50.5551H24.4837C23.4062 50.5551 22.6003 49.7231 22.6003 48.6106V5.83346C22.6003 4.72102 23.4062 3.88897 24.4837 3.88897H73.4495C74.527 3.88897 75.3328 4.72102 75.3328 5.83346V50.5551H54.6159C52.1303 50.5551 52.1761 54.4837 54.6159 54.4441H80.9829C83.4685 54.4441 83.4463 50.5551 80.9829 50.5551H79.0981V15.5559H95.0195L109.23 38.4844V48.6122C109.23 49.7246 108.424 50.5567 107.347 50.5567H103.585C101.12 50.5567 101.12 54.4456 103.585 54.4456H107.35C110.447 54.4456 113 51.8093 113 48.6122V37.9175C113 37.5459 112.898 37.1818 112.706 36.8675L97.6394 12.5599C97.4682 12.2854 97.2329 12.0598 96.9551 11.9037C96.6773 11.7477 96.366 11.6663 96.0498 11.6669H79.0981V5.83346C79.0981 2.63633 76.5446 0 73.4495 0H24.4837H24.4822Z" fill="#D59D48"/>
<path d="M47.9946 45.0858V43.6152C47.9946 43.1733 48.2795 42.8792 48.7075 42.8792C49.1355 42.8792 49.4204 43.1733 49.4204 43.6152V45.0858C49.4204 45.5277 49.1355 45.8218 48.7075 45.8218C48.2795 45.8218 47.9946 45.5277 47.9946 45.0858ZM47.9946 11.2447V9.77414C47.9946 9.33221 48.2795 9.0381 48.7075 9.0381C49.1355 9.0381 49.4204 9.33221 49.4204 9.77414V11.2447C49.4204 11.6866 49.1355 11.9807 48.7075 11.9807C48.2795 11.9807 47.9946 11.6866 47.9946 11.2447ZM31.6067 26.6939H33.0311C33.4591 26.6939 33.744 26.988 33.744 27.43C33.744 27.8719 33.4591 28.166 33.0311 28.166H31.6067C31.1787 28.166 30.8938 27.8719 30.8938 27.43C30.8938 26.988 31.1787 26.6939 31.6067 26.6939ZM64.3839 26.6939H65.8083C66.2363 26.6939 66.5212 26.988 66.5212 27.43C66.5212 27.8719 66.2363 28.166 65.8083 28.166H64.3839C63.9559 28.166 63.6711 27.8719 63.6711 27.43C63.6711 26.988 63.9559 26.6939 64.3839 26.6939ZM48.7075 13.4513C48.2795 13.4513 47.9946 13.7469 47.9946 14.1873V23.7513C46.5703 24.1932 45.146 25.6638 45.146 27.43C45.146 29.4903 46.5703 31.1086 48.7075 31.1086C50.4182 31.1086 51.8425 29.6365 52.1274 28.166H58.5405C58.9686 28.166 59.2534 27.8719 59.2534 27.43C59.2534 26.988 58.9686 26.6939 58.5405 26.6939H52.2705C51.8425 25.2234 50.8447 24.1932 49.4204 23.7528V14.3351C49.4204 13.8932 49.1355 13.5991 48.7075 13.5991V13.4528V13.4513ZM48.7075 25.2234C49.847 25.2234 50.8447 26.2535 50.8447 27.43C50.8447 28.6064 49.847 29.6365 48.7075 29.6365C47.568 29.6365 46.5703 28.6064 46.5703 27.43C46.5703 26.2535 47.568 25.2234 48.7075 25.2234ZM48.7075 6.09546C37.307 6.09546 28.0437 15.6594 28.0437 27.43C28.0437 39.2005 37.307 48.7644 48.7075 48.7644C60.108 48.7644 69.3713 39.2005 69.3713 27.43C69.3713 15.6594 60.108 6.09546 48.7075 6.09546ZM48.7075 7.56754C51.2368 7.55665 53.7432 8.06298 56.082 9.0573C58.4209 10.0516 60.5458 11.5143 62.3343 13.3608C64.1228 15.2074 65.5395 17.4013 66.5026 19.8161C67.4656 22.2308 67.956 24.8185 67.9455 27.43C67.956 30.0414 67.4656 32.6291 66.5026 35.0438C65.5395 37.4586 64.1228 39.6525 62.3343 41.4991C60.5458 43.3456 58.4209 44.8083 56.082 45.8026C53.7432 46.7969 51.2368 47.3033 48.7075 47.2924C46.1782 47.3033 43.6718 46.7969 41.333 45.8026C38.9942 44.8083 36.8692 43.3456 35.0807 41.4991C33.2922 39.6525 31.8755 37.4586 30.9124 35.0438C29.9494 32.6291 29.459 30.0414 29.4695 27.43C29.459 24.8185 29.9494 22.2308 30.9124 19.8161C31.8755 17.4013 33.2922 15.2074 35.0807 13.3608C36.8692 11.5143 38.9942 10.0516 41.333 9.0573C43.6718 8.06298 46.1782 7.55665 48.7075 7.56754Z" fill="#D59D48" stroke="#D59D48" stroke-width="0.846154"/>
</svg>
