<svg width="105" height="14" viewBox="0 0 105 14" fill="none" xmlns="http://www.w3.org/2000/svg">
<path d="M4.46334 1.47195C4.22951 2.10639 3.65804 3.66344 3.19332 4.93219C2.7286 6.20095 1.81998 8.66346 1.17415 10.4043C0.528437 12.1453 0 13.5959 0 13.628C0 13.66 0.899762 13.6863 1.99943 13.6863H3.99874L4.30233 12.8878C4.46937 12.4485 4.99367 11.0246 5.46761 9.72329L6.32931 7.35732L8.73446 7.32526C10.9961 7.29509 11.1347 7.30574 11.0551 7.50271C10.6445 8.51795 8.8664 13.4202 8.8664 13.5365C8.8664 13.6502 9.26621 13.6863 10.5274 13.6863C12.317 13.6863 12.7132 13.5875 12.9778 13.0753C13.1221 12.7956 14.0115 10.4151 16.0198 4.93219C16.6276 3.27305 17.2617 1.555 17.4289 1.11422L17.7329 0.312977L15.6971 0.345273L13.6612 0.377687L12.729 2.89154L11.7968 5.40539H9.44496C8.15141 5.40539 7.09312 5.3822 7.09312 5.35393C7.09312 5.32565 7.4921 4.21293 7.97976 2.88136C8.46741 1.54967 8.8664 0.428319 8.8664 0.38928C8.8664 0.35036 7.97136 0.318537 6.87737 0.318537H4.88834L4.46334 1.47195Z" fill="#FF0000"/>
<path d="M19.7212 1.82803C17.1041 8.95754 15.907 12.1999 15.6595 12.8299C15.4994 13.2372 15.3684 13.5978 15.3684 13.6312C15.3684 13.6645 16.2821 13.6773 17.3988 13.6596L19.4292 13.6272L19.7537 12.7399C19.9322 12.2519 20.5296 10.6283 21.0811 9.1318C21.6326 7.63532 22.5883 5.0402 23.2049 3.36473L24.326 0.318537L22.3003 0.31972L20.2745 0.320903L19.7212 1.82803Z" fill="#FF0000"/>
<path fill-rule="evenodd" clip-rule="evenodd" d="M78.4399 2.88799C79.3505 1.73327 80.8191 0.785699 82.3307 0.377687C83.2262 0.135884 86.7962 0.142035 87.5132 0.386559C88.7702 0.815156 89.7279 2.14176 89.7279 3.4544C89.7279 4.61834 89.1704 6.52982 88.1834 8.75005C87.1897 10.9857 86.0862 12.2231 84.3448 13.0546C83.0721 13.6624 82.0616 13.8289 79.9158 13.7839C78.2967 13.7499 78.0201 13.7142 77.5396 13.4773C76.3968 12.9138 75.6662 11.8721 75.5731 10.6731C75.4453 9.02864 77.0641 4.63289 78.4399 2.88799ZM40.7247 10.0782C40.3375 5.03263 40.0789 1.76687 40.0105 1.0579L39.9391 0.318537H41.8177H43.6962L43.8431 2.24089C43.924 3.29825 44.0384 4.69559 44.0974 5.34624C44.1565 5.99688 44.2401 7.1148 44.2833 7.83051C44.3264 8.54622 44.395 9.19308 44.4355 9.26796C44.4761 9.34284 45.8659 7.36323 47.5239 4.86902L50.5385 0.334034L51.632 0.326227C52.2334 0.321968 52.7255 0.333325 52.7255 0.351424C52.7255 0.369406 50.7861 3.28405 48.4158 6.82828C45.0523 11.8574 44.0206 13.3177 43.7167 13.479C43.4236 13.6347 43.0449 13.6859 42.1881 13.6861L41.049 13.6863L40.9776 13.0652C40.9383 12.7236 40.8244 11.3795 40.7247 10.0782ZM52.1659 6.23348C52.5875 5.09485 53.2451 3.29896 53.627 2.24255L54.3214 0.32185L56.1834 0.320194C57.2075 0.319247 58.0453 0.343735 58.0453 0.374493C58.0453 0.424296 55.6974 6.83728 54.1245 11.0837C53.799 11.9621 53.4504 12.907 53.3496 13.1835L53.1662 13.6863H51.3499C49.9555 13.6863 49.5336 13.6512 49.5336 13.5352C49.5336 13.3951 50.2747 11.3394 52.1659 6.23348ZM59.464 4.16005C59.464 2.47122 60.4374 1.07305 61.9858 0.537508C62.5213 0.352371 63.0603 0.325754 66.3502 0.322441C68.4145 0.320312 70.1004 0.358522 70.0967 0.407261C70.0928 0.456001 69.9729 0.815392 69.8303 1.20578L69.5709 1.91557L66.5365 1.97472C63.5431 2.03304 63.4979 2.03766 63.2032 2.31495C62.7912 2.70261 62.7115 3.16753 62.9654 3.70283C63.0796 3.94369 63.868 4.86689 64.7172 5.7546C65.5819 6.65817 66.4176 7.65235 66.6162 8.01352C66.9403 8.603 66.9708 8.75537 66.9703 9.78244C66.9698 10.7696 66.9315 10.9788 66.6558 11.5025C66.2739 12.2276 65.4319 13.0267 64.6864 13.3715C64.1584 13.6157 63.9466 13.6288 59.9664 13.6636C59.5921 13.6669 59.2499 13.6705 58.9372 13.6737L58.9367 13.6737C56.6535 13.6977 55.9485 13.7051 55.8369 13.4513C55.787 13.3379 55.8556 13.1724 55.9548 12.9329L55.9548 12.9328C55.9852 12.8594 56.0185 12.7791 56.0521 12.6913L56.3049 12.0301H59.368C62.7524 12.0301 62.9589 11.9921 63.3146 11.304C63.6936 10.5704 63.3351 9.95823 61.0313 7.40416C59.7696 6.0054 59.464 5.37297 59.464 4.16005ZM71.6512 3.80835C72.2959 2.05161 72.8481 0.5478 72.8785 0.466411C72.9192 0.356866 73.4089 0.318537 74.7696 0.318537C75.7794 0.318537 76.6057 0.361835 76.6057 0.414714C76.6057 0.467712 76.147 1.75859 75.5864 3.28346C75.0257 4.80845 73.942 7.75953 73.1781 9.84159L71.7892 13.6272L69.9416 13.6597C68.9254 13.6777 68.0939 13.647 68.0939 13.5918C68.0939 13.5364 68.6305 12.0313 69.2865 10.2468C69.9424 8.46235 71.0065 5.56509 71.6512 3.80835ZM90.6715 7.53477C91.5883 5.05972 93.0107 1.1956 93.166 0.758372L93.3247 0.311084L94.5581 0.344327L95.7916 0.377687L96.065 1.02833C96.2154 1.38618 96.9534 3.24939 97.7051 5.16879L97.9299 5.74302C99.1142 8.76769 99.2779 9.1857 99.358 9.17024C99.3708 9.16776 99.3815 9.15413 99.3939 9.13832C99.3986 9.13243 99.4034 9.12624 99.4087 9.12021C99.4918 9.02569 99.9785 7.72889 102.113 1.91557L102.677 0.377687L103.644 0.34338L104.61 0.309192L104.255 1.28977C104.06 1.82921 103.318 3.84088 102.606 5.76028C101.894 7.67968 100.95 10.2349 100.509 11.4386L99.7077 13.6272L98.7952 13.6617C97.7034 13.7031 97.1628 13.4968 96.8979 12.9378C96.7331 12.5899 95.5054 9.31954 94.3367 6.11518C94.0638 5.36694 93.8026 4.71381 93.7561 4.66365C93.6754 4.57658 93.3663 5.37723 91.2773 11.0837L90.3462 13.6272L89.3869 13.6615C88.8593 13.6804 88.4275 13.6749 88.4275 13.6494C88.4275 13.6086 89.0647 11.8724 90.6715 7.53477ZM86.3025 2.83061C86.3004 2.56101 86.1815 2.31542 85.908 2.01695C85.5774 1.65591 85.4257 1.5828 84.9327 1.54719C83.7378 1.46083 82.5626 2.04061 81.9402 3.02344C81.5615 3.6212 78.97 10.6409 78.97 11.0687C78.97 11.447 79.265 11.9638 79.6101 12.1901C80.0679 12.4902 81.2535 12.448 81.9891 12.1051C83.1599 11.5596 83.3867 11.1633 84.9241 6.9777C85.6838 4.90924 86.3041 3.04308 86.3025 2.83061Z" fill="black"/>
<path d="M26.8623 0.643859C26.7581 0.939843 25.9536 3.12884 23.0996 10.8823C22.5536 12.3656 22.1069 13.6033 22.1069 13.6327C22.1069 13.6622 23.0057 13.6863 24.1042 13.6863H26.1015L26.8304 11.7048C27.2313 10.6149 27.6442 9.48374 27.748 9.19095C27.925 8.69149 28.6315 7.90409 28.9114 7.89416C28.9802 7.89167 29.6378 9.05703 30.3725 10.4837C31.1072 11.9105 31.8397 13.2014 32.0002 13.3525C32.2772 13.6132 32.3911 13.629 34.2335 13.6647C35.6522 13.6921 36.1749 13.6651 36.1749 13.5646C36.1749 13.4889 35.9424 12.993 35.6582 12.4624C35.3741 11.9318 34.442 10.1306 33.5871 8.45951L32.0328 5.42124L33.4832 4.31337C34.2809 3.70389 35.7573 2.56917 36.7641 1.79148L38.5946 0.377687L37.1316 0.344327L35.6687 0.310966L34.0717 1.52731C33.1933 2.19629 31.7778 3.28843 30.926 3.9541C30.0742 4.61988 29.3436 5.16559 29.3024 5.16666C29.2611 5.16784 29.6193 4.11735 30.0983 2.83239C30.5774 1.54731 30.9702 0.456001 30.9713 0.407261C30.9724 0.358522 30.0741 0.318537 28.9751 0.318537H26.977L26.8623 0.643859Z" fill="#FF0000"/>
</svg>
