<svg width="135" height="14" viewBox="0 0 135 14" fill="none" xmlns="http://www.w3.org/2000/svg">
<path d="M2.77087 8.00604C2.49713 8.62713 1.83461 10.0774 1.29871 11.2284C0.762822 12.3795 0.324463 13.3663 0.324463 13.421C0.324463 13.4757 1.27824 13.5207 2.44378 13.5207H4.5631L5.4444 11.5939C5.9291 10.5343 6.61048 9.03933 6.95885 8.2718L7.59227 6.87654H5.43066H3.26904L2.77087 8.00604Z" fill="#FF0000"/>
<path fill-rule="evenodd" clip-rule="evenodd" d="M61.9229 0.622561C58.093 1.96919 56.3021 6.52148 58.1956 10.0971C61.5465 16.4244 71.4534 14.1173 71.4534 7.00942C71.4534 2.27429 66.5573 -1.00684 61.9229 0.622561ZM5.57076 1.35129C5.77876 1.83232 7.09599 4.73713 8.49809 7.80672L11.0474 13.3878L13.23 13.4649C14.4304 13.5074 15.4124 13.4975 15.4124 13.4428C15.4124 13.388 14.1022 10.4832 12.5007 6.9871L9.58927 0.631066L7.39101 0.553994L5.19275 0.476922L5.57076 1.35129ZM19.789 7.02005L16.8083 13.5422L18.8697 13.4649L20.9308 13.3878L22.4151 10.0187C23.2315 8.1655 23.9711 6.57995 24.0586 6.49517C24.1462 6.41039 24.9251 7.95634 25.7894 9.93071L27.361 13.5207H29.3572C30.4847 13.5207 31.3146 13.4122 31.2637 13.2714C31.2143 13.1342 29.9009 10.2074 28.3449 6.76704L25.516 0.512269L24.1427 0.505359L22.7694 0.498183L19.789 7.02005ZM33.1946 7.00942V13.5207H37.173C40.5274 13.5207 41.2985 13.4436 42.0901 13.0285C44.8795 11.5665 45.1982 7.76366 42.6893 5.8754C41.8514 5.24474 41.4286 5.13684 39.4801 5.05525L37.2361 4.9617V2.72981V0.498183H35.2153H33.1946V7.00942ZM44.5106 2.09277V3.68736H46.3966H48.2826V8.60401V13.5207H50.3033H52.324V8.60401V3.68736H54.3447H56.3654V2.09277V0.498183H50.438H44.5106V2.09277ZM73.3394 7.00942V13.5207H75.3601H77.3808V11.1288V8.73689H79.5362H81.6916V11.1288V13.5207H83.7123H85.733V7.00942V0.498183H83.7123H81.6916V2.89007V5.28195H79.5362H77.3808V2.89007V0.498183H75.3601H73.3394V7.00942ZM88.9662 7.00942V13.5207H90.5846H92.2031L94.9628 10.0681L97.7226 6.61529L97.7977 10.0681L97.8729 13.5207H99.8858H101.899V7.00942V0.498183H100.16H98.422L95.7822 3.81573L93.1423 7.13353L93.0669 3.81573L92.9914 0.498183H90.9788H88.9662V7.00942ZM104.862 7.00942V13.5207H106.883H108.904V10.7099V7.89894L111.386 10.7099L113.869 13.5207H116.4H118.932L116.41 10.8508C115.023 9.38217 113.623 7.85668 113.298 7.46042L112.708 6.7402L115.372 3.81865C116.838 2.21157 118.043 0.807268 118.05 0.697507C118.058 0.587746 117.052 0.498183 115.815 0.498183H113.565L111.302 3.05457L109.039 5.61097L108.961 3.05457L108.884 0.498183H106.873H104.862V7.00942ZM126.001 3.08939C126.645 4.51442 127.964 7.41471 128.932 9.53419L130.693 13.3878L132.892 13.4654C134.246 13.5132 135.055 13.4428 134.997 13.2825C134.946 13.1393 133.631 10.2074 132.075 6.76704L129.246 0.512269L127.038 0.505359L124.831 0.498183L126.001 3.08939ZM66.0864 4.14076C68.8927 5.77601 67.6485 10.3559 64.4068 10.3222C60.1951 10.2781 60.1951 3.74078 64.4068 3.69666C64.9025 3.69161 65.6582 3.89147 66.0864 4.14076ZM39.9764 8.37944C41.146 9.42336 40.1475 10.863 38.2537 10.863H37.2361V9.40131V7.9396H38.3598C39.0275 7.9396 39.6838 8.11819 39.9764 8.37944Z" fill="black"/>
<path d="M122.662 7.47451C122.531 7.80326 121.975 9.02923 121.428 10.1986C120.458 12.2701 120.007 13.0744 120.234 13.3652C120.413 13.5951 121.015 13.5043 122.119 13.4649L124.282 13.3878L125.506 10.7301C126.651 8.24206 127.157 7.34095 126.906 7.02455C126.72 6.79031 126.119 6.87654 125.056 6.87654C123.071 6.87654 122.882 6.92385 122.662 7.47451Z" fill="#FF0000"/>
</svg>
