<svg width="122" height="73" viewBox="0 0 122 73" fill="none" xmlns="http://www.w3.org/2000/svg">
<path d="M65.1964 8.90314L65.1653 8.30591L64.5966 8.13492C64.5584 8.13492 60.616 6.95972 49.7685 4.14212C38.2807 1.15835 32.833 0.048164 32.7805 0.0337148L32.6132 0L32.4484 0.0337148C32.3958 0.0337148 26.9529 1.15835 15.4603 4.14212C4.6128 6.97658 0.670422 8.13011 0.622635 8.13974L0.0539766 8.31072L0.022918 8.90796C0.00141411 9.37756 -0.490787 20.6528 4.45271 41.1442C6.21364 48.4483 10.297 55.2082 16.5904 61.2407C21.8852 66.3148 27.6984 69.9416 31.9442 72.5882L32.6037 73L33.2655 72.5882C37.5113 69.9392 43.3245 66.3148 48.6193 61.2383C49.3138 60.572 49.982 59.8961 50.6239 59.2106H44.1417C39.9651 62.9698 35.6429 65.732 32.6132 67.6393C25.775 63.3407 12.3781 54.6591 8.85623 40.0678C5.40127 25.7461 4.69881 15.8894 4.55545 11.7641C6.86593 11.1259 10.7032 10.0784 16.5761 8.56118C25.4477 6.25652 30.6349 5.08854 32.6013 4.66229C34.5701 5.08854 39.7573 6.25652 48.6288 8.56118C54.4946 10.0856 58.3342 11.1235 60.6495 11.7641C60.6065 13.0597 60.5109 14.9213 60.2887 17.303H64.8499C65.3325 12.0025 65.2059 9.14396 65.1964 8.90314Z" fill="black"/>
<path d="M34.171 26.7239C34.1939 27.5577 34.0499 28.3876 33.7478 29.1642C33.4457 29.9408 32.9916 30.6481 32.4125 31.2441C31.2417 32.4578 29.4529 33.1963 27.0461 33.4596C27.0732 34.4952 27.1034 35.4127 27.1369 36.2122H23.8564C23.9057 35.0354 23.9312 34.1179 23.9328 33.4596C21.4766 33.2573 19.6743 32.6023 18.5258 31.4945C17.3773 30.3868 16.8047 28.9723 16.8079 27.2513C16.8079 25.4499 17.3917 23.952 18.5592 22.7575C19.7268 21.5631 21.518 20.8334 23.9328 20.5685L23.8564 18.3818H27.1441C27.1273 18.6371 27.0963 19.3644 27.0533 20.5685C29.5127 20.7708 31.315 21.417 32.4603 22.5071C33.6056 23.5972 34.1758 25.0028 34.171 26.7239ZM24.038 27.2585C24.038 26.0191 24.0244 24.4987 23.9973 22.6973C21.3117 23.0184 19.9697 24.473 19.9713 27.061C19.9713 29.5126 21.3133 30.9398 23.9973 31.3428C24.0164 29.7807 24.03 28.4192 24.038 27.2585ZM31.0339 26.9815C31.0339 24.53 29.6911 23.1019 27.0055 22.6973C26.9784 24.253 26.9657 25.6105 26.9673 26.7696C26.9673 28.0107 26.98 29.5359 27.0055 31.3452C29.6831 31.0209 31.0219 29.5664 31.0219 26.9815H31.0339Z" fill="black"/>
<path d="M49.0923 29.669C49.0923 31.8846 48.4161 33.6161 47.0638 34.8635C45.7723 36.0889 44.0586 36.7599 42.2852 36.7347C40.6281 36.7673 39.0222 36.1559 37.8004 35.0273C36.5532 33.8906 35.9296 32.2851 35.9296 30.2109C35.9296 27.9889 36.6097 26.2494 37.97 24.9923C39.2607 23.7643 40.9739 23.0891 42.7487 23.1091C44.402 23.0777 46.0029 23.6941 47.2143 24.8285C48.4663 25.9828 49.0923 27.5963 49.0923 29.669ZM45.678 30.0664C45.7171 28.9296 45.4067 27.8083 44.7892 26.8562C44.1966 25.9925 43.4257 25.5598 42.4763 25.5582C42.0304 25.5528 41.5904 25.6602 41.1963 25.8706C40.8023 26.0809 40.4669 26.3875 40.2208 26.7623C39.6163 27.653 39.3115 28.7158 39.3511 29.7942C39.3122 30.931 39.6227 32.0521 40.2399 33.0044C40.8324 33.8681 41.6034 34.3008 42.5528 34.3024C42.9987 34.308 43.4388 34.2007 43.8329 33.9903C44.227 33.7799 44.5623 33.4732 44.8083 33.0983C45.4135 32.2079 45.7184 31.1449 45.678 30.0664Z" fill="black"/>
<path d="M64.0639 29.4184C64.0956 31.2286 63.5244 32.9973 62.4415 34.4419C61.3616 35.8868 59.8842 36.6093 58.0093 36.6093C56.614 36.6093 55.6583 36.3107 55.1422 35.7134H54.9845C54.9845 37.8664 55.0155 40.045 55.0777 42.2493H51.5152C51.6745 39.7287 51.7541 36.8204 51.7541 33.5244C51.7541 29.2747 51.5271 26.0333 51.0732 23.8L54.4182 23.4292L54.6213 24.5562H54.8316C55.7634 23.6861 57.0313 23.251 58.6353 23.251C60.3095 23.251 61.6347 23.8595 62.6112 25.0764C63.5865 26.3068 64.1008 27.844 64.0639 29.4184ZM60.5946 29.7628C60.6212 28.746 60.3331 27.7461 59.7703 26.9018C59.5251 26.5217 59.1871 26.2114 58.7889 26.0005C58.3906 25.7897 57.9453 25.6854 57.4956 25.6977C56.293 25.6977 55.413 26.0533 54.8554 26.7646C54.9845 29.2354 55.0498 31.4983 55.0514 33.5533C55.6687 34.0057 56.4202 34.2333 57.1826 34.1987C58.3407 34.1987 59.1992 33.766 59.7583 32.9007C60.3359 31.9598 60.6267 30.8687 60.5946 29.7628Z" fill="black"/>
<path d="M81.9909 36.2195H78.6028C78.6028 34.842 78.5925 32.9748 78.5718 30.618C78.5511 28.2612 78.5399 26.8026 78.5383 26.2423H78.2994C78.1242 26.8764 77.5492 28.4755 76.5743 31.0394C75.5995 33.6034 75.1112 35.3341 75.1097 36.2315H72.1445C72.1445 35.2297 71.7869 33.6861 71.0717 31.6005C70.3565 29.515 69.799 27.729 69.3992 26.2423H69.177C69.177 26.8299 69.1284 28.4265 69.0312 31.0322C68.9341 33.6379 68.8863 35.371 68.8879 36.2315H65.906C65.906 35.9795 66.0653 34.1107 66.3839 30.6252C66.7024 27.1397 66.8617 24.8351 66.8617 23.7113H71.6619C71.6619 24.7227 72.0497 26.4542 72.8255 28.9058C73.6012 31.3573 73.9891 32.8287 73.9891 33.32H74.1205C74.1205 32.8191 74.5322 31.3429 75.3558 28.8913C76.1793 26.4398 76.595 24.7091 76.603 23.6992H81.4676C81.4676 24.823 81.5544 27.0964 81.7281 30.5193C81.9017 33.9421 81.9893 35.8422 81.9909 36.2195Z" fill="black"/>
<path d="M95.7174 23.6992C95.7174 24.2707 95.0938 26.0809 93.8466 29.1297C92.4242 32.636 91.5481 35.0258 91.2183 36.2989C90.6529 38.4952 89.8899 40.0107 88.9294 40.8456C88.0039 41.6483 86.6181 42.0497 84.772 42.0497L84.5092 39.5042C85.4826 39.5429 86.435 39.2121 87.178 38.5771C87.5243 38.2669 87.7978 37.883 87.9788 37.4532C88.1598 37.0233 88.2438 36.5583 88.2245 36.0918C88.2245 35.0466 87.44 32.7604 85.8711 29.2332C84.3021 25.706 83.5176 23.8597 83.5176 23.6943H87.5579C87.5579 24.0026 87.9561 25.4925 88.7526 28.164C89.549 30.8355 89.9472 32.469 89.9472 33.0647H90.1288C90.1288 32.5557 90.4888 31.0514 91.2088 28.5517C91.9288 26.052 92.288 24.4329 92.2864 23.6943L95.7174 23.6992Z" fill="black"/>
<path d="M108.364 36.2195H104.9C105.013 34.5771 105.069 32.5783 105.069 30.2231C105.069 28.844 105.034 27.4513 104.964 26.0449H103.488C103.295 26.8476 103.056 27.6503 102.771 28.4531C102.493 29.2573 102.174 30.0467 101.815 30.8179C101.477 31.5561 101.095 32.2734 100.673 32.9661C100.293 33.5933 99.8543 34.1828 99.3636 34.7265C98.944 35.1935 98.4615 35.5989 97.93 35.9306C97.4665 36.2212 96.9385 36.3909 96.3936 36.4242L96.2622 33.2623C96.5712 33.1803 96.8516 33.0136 97.0722 32.7806C97.4171 32.4518 97.7263 32.0869 97.9945 31.6921C98.3441 31.1869 98.6633 30.661 98.9502 30.1171C99.2728 29.5199 99.5882 28.8745 99.8916 28.1906C100.195 27.5066 100.482 26.7673 100.749 26.0015C101.017 25.2357 101.251 24.4651 101.466 23.6824H105.965L108.355 23.4199C108.24 25.1249 108.183 27.2995 108.183 29.9438C108.181 32.2123 108.241 34.3042 108.364 36.2195Z" fill="black"/>
<path d="M121.912 36.2073L118.825 36.3133C118.696 35.9946 118.626 35.6553 118.617 35.3115H118.445C117.489 36.1367 116.195 36.5493 114.562 36.5493C113.577 36.585 112.613 36.2599 111.848 35.6342C111.496 35.3388 111.215 34.9659 111.029 34.5443C110.842 34.1226 110.753 33.6634 110.77 33.2019C110.762 32.5588 110.91 31.9234 111.202 31.3513C111.493 30.7792 111.919 30.2876 112.443 29.9195C113.558 29.0702 115.522 28.6183 118.335 28.5637C118.351 28.4149 118.36 28.2654 118.361 28.1158C118.361 27.1669 118.134 26.5408 117.68 26.2374C117.226 25.9339 116.394 25.7822 115.183 25.7822C113.879 25.7806 112.581 25.958 111.325 26.3096L111.614 23.8845C112.799 23.4703 114.471 23.264 116.631 23.2656C118.208 23.2656 119.427 23.5996 120.287 24.2674C121.147 24.9353 121.576 26.1033 121.575 27.7714C121.575 28.1423 121.558 28.8141 121.529 29.7895C121.501 30.7648 121.482 31.415 121.482 31.7401C121.453 33.2409 121.598 34.74 121.912 36.2073ZM118.416 33.4668C118.365 32.2804 118.34 31.2561 118.34 30.3939C115.367 30.3939 113.88 31.1541 113.879 32.6745C113.879 33.7197 114.533 34.2422 115.84 34.2422C116.76 34.2764 117.665 34.0038 118.416 33.4668Z" fill="black"/>
<path d="M38.718 42.7362L38.5722 43.8271C36.9092 43.7693 35.3697 43.7404 33.9537 43.7404C33.8613 44.898 33.8031 45.6116 33.7792 45.8813C33.7506 46.1944 33.7243 46.4785 33.7052 46.7386C34.109 46.7194 34.4865 46.7097 34.8401 46.7097C37.3282 46.7097 38.5722 47.5125 38.5722 49.1179C38.5722 50.1808 38.1676 50.9787 37.3584 51.5117C36.5493 52.0447 35.4454 52.3128 34.0468 52.316C33.6885 52.316 32.9876 52.3008 31.9442 52.2703C32.0526 51.5815 32.2612 49.9102 32.5702 47.2564C32.7502 45.5369 32.8474 44.027 32.8617 42.7266L38.718 42.7362ZM37.3799 49.2672C37.3799 48.2173 36.4338 47.6923 34.5414 47.6923C34.2223 47.6901 33.9033 47.7045 33.5857 47.7356C33.4503 49.0409 33.3484 50.2064 33.2799 51.2323C33.6064 51.2892 33.9379 51.3118 34.2691 51.2998C35.3156 51.2998 36.0961 51.1392 36.6106 50.8181C37.1219 50.5051 37.3799 49.9849 37.3799 49.2672Z" fill="#D59D48"/>
<path d="M45.8906 46.7118C45.8975 47.0238 45.8154 47.3312 45.654 47.5976C45.4926 47.864 45.2588 48.0781 44.9803 48.2145C44.2093 48.6528 42.8952 48.8896 41.0379 48.9249C41.0379 49.8039 41.1884 50.4445 41.4919 50.8515C41.7953 51.2585 42.3066 51.4487 43.0234 51.4487C43.8424 51.4136 44.6367 51.1556 45.322 50.7022L45.1404 51.7859C44.4275 52.2816 43.5761 52.5348 42.7104 52.5083C41.7213 52.5083 40.9925 52.2089 40.5242 51.6101C40.0386 50.954 39.7914 50.1497 39.8241 49.3319C39.8241 47.9785 40.2152 46.9221 40.9973 46.1627C41.3509 45.8004 41.7727 45.5128 42.2379 45.3168C42.7032 45.1208 43.2025 45.0203 43.7068 45.0212C44.261 45.0012 44.8069 45.1607 45.2646 45.4763C45.4622 45.6141 45.6227 45.799 45.732 46.0146C45.8412 46.2302 45.8957 46.4697 45.8906 46.7118ZM44.7342 46.7407C44.7364 46.6172 44.7039 46.4956 44.6405 46.3899C44.5771 46.2842 44.4853 46.1988 44.3758 46.1434C44.0946 45.993 43.7788 45.9207 43.4607 45.9339C42.9243 45.9367 42.4046 46.1226 41.9865 46.4613C41.5006 46.8707 41.1851 47.4492 41.1024 48.082C42.5902 48.0531 43.6112 47.8926 44.1655 47.6004C44.3354 47.529 44.4803 47.4081 44.5816 47.2532C44.6829 47.0983 44.736 46.9165 44.7342 46.731V46.7407Z" fill="#D59D48"/>
<path d="M51.9189 46.6565C51.9189 47.493 51.5048 48.0846 50.6765 48.4314V48.506C51.0173 48.6044 51.3147 48.8169 51.5196 49.1084C51.7246 49.4 51.825 49.7532 51.8042 50.1099C51.8181 50.4525 51.7448 50.793 51.5913 51.099C51.4378 51.405 51.2093 51.6663 50.9274 51.8582C50.2738 52.2924 49.5018 52.5097 48.7196 52.4796C47.9548 52.4956 47.1985 52.3158 46.5215 51.957L46.7413 50.9672C47.3643 51.353 48.0816 51.5565 48.8128 51.5548C50.0696 51.5548 50.698 51.1005 50.698 50.1918C50.698 49.4837 50.0433 49.1289 48.734 49.1273C48.3158 49.1273 47.9455 49.1418 47.6205 49.1731L47.838 48.2098C48.1844 48.2387 48.4974 48.2531 48.7937 48.2531C49.2819 48.2604 49.7647 48.1489 50.201 47.928C50.3922 47.844 50.5542 47.7046 50.6665 47.5275C50.7789 47.3504 50.8364 47.1436 50.8318 46.9335C50.8318 46.3587 50.3292 46.0705 49.3241 46.0689C48.6167 46.0881 47.9239 46.2763 47.3028 46.618L47.4915 45.5921C48.0004 45.2501 48.6862 45.0791 49.5726 45.0791C50.1556 45.0615 50.7328 45.2003 51.2451 45.4813C51.4548 45.5946 51.629 45.7646 51.748 45.9722C51.8671 46.1798 51.9262 46.4168 51.9189 46.6565Z" fill="#D59D48"/>
<path d="M59.8109 48.1907C59.8324 49.3086 59.457 50.3975 58.7524 51.2612C58.421 51.683 57.9962 52.0208 57.512 52.2475C57.0278 52.4742 56.4977 52.5834 55.9641 52.5664C55.5885 52.567 55.2174 52.4842 54.8772 52.3239C54.5369 52.1637 54.2358 51.93 53.9953 51.6393C53.4269 50.9712 53.1322 50.1102 53.171 49.2311C53.148 48.1378 53.5228 47.0739 54.2247 46.2401C54.5675 45.8293 54.9987 45.5027 55.4857 45.2853C55.9726 45.0679 56.5023 44.9653 57.0345 44.9854C57.4046 44.9808 57.7714 45.0557 58.1104 45.2052C58.4495 45.3547 58.7531 45.5753 59.0009 45.8523C59.5409 46.4255 59.8109 47.205 59.8109 48.1907ZM58.5756 48.4026C58.5937 47.7848 58.4335 47.1749 58.1145 46.6471C57.9761 46.4174 57.7792 46.2294 57.5444 46.1023C57.3095 45.9753 57.0452 45.9139 56.7788 45.9246C56.4256 45.9231 56.0785 46.0173 55.7737 46.1974C55.469 46.3774 55.2178 46.6367 55.0466 46.9481C54.6219 47.6085 54.397 48.3791 54.3991 49.166C54.3839 49.7858 54.5501 50.3964 54.8769 50.9216C55.018 51.152 55.2175 51.3404 55.4547 51.4674C55.692 51.5944 55.9585 51.6553 56.2269 51.6441C56.9389 51.6441 57.51 51.3029 57.9401 50.6206C58.3606 49.9572 58.5814 49.1851 58.5756 48.3978V48.4026Z" fill="#D59D48"/>
<path d="M67.3635 47.2662C67.3635 47.6515 67.3086 48.4382 67.1986 49.6263C67.0887 50.8159 67.0362 51.6997 67.0362 52.2753L65.8057 52.3499C65.8057 52.1356 65.8773 51.442 66.0159 50.2741C66.1354 49.3957 66.2064 48.5113 66.2286 47.625C66.2286 47.0535 66.125 46.6521 65.918 46.4209C65.788 46.3007 65.6346 46.2091 65.4676 46.1519C65.3006 46.0947 65.1236 46.0731 64.9479 46.0886C64.4191 46.0886 63.9109 46.437 63.4235 47.1338C62.9427 47.813 62.6476 48.6079 62.5681 49.4384C62.463 50.535 62.3834 51.4782 62.3292 52.2681L61.1346 52.3427C61.4738 49.8125 61.6435 48.1019 61.6435 47.2108C61.6358 46.5831 61.5967 45.9562 61.5264 45.3324L62.7569 45.1494C62.7856 45.5805 62.7999 46.1488 62.7999 46.8592H62.8572C63.4944 45.6696 64.3625 45.0755 65.4616 45.0772C66.7295 45.0852 67.3635 45.8149 67.3635 47.2662Z" fill="#D59D48"/>
<path d="M74.7321 44.9854C74.2893 47.4674 74.0679 49.2736 74.0679 50.4038C74.075 51.0072 74.1189 51.6096 74.1993 52.2076L72.9712 52.3906C72.9425 51.9555 72.9282 51.4105 72.9282 50.7554H72.8613C72.2448 51.8793 71.4324 52.4412 70.4242 52.4412C70.1588 52.4534 69.8949 52.3946 69.6595 52.2707C69.424 52.1467 69.2254 51.9621 69.0837 51.7356C68.7528 51.1799 68.5916 50.5383 68.6202 49.8909C68.6107 48.7032 69.0687 47.5601 69.8937 46.712C70.7411 45.8066 71.9605 45.3442 73.5518 45.3249L73.8719 45.0985L74.7321 44.9854ZM73.406 46.1509C72.1763 46.175 71.2779 46.5138 70.7109 47.1672C70.1438 47.8206 69.8619 48.6844 69.865 49.7584C69.865 50.8726 70.2338 51.4297 70.9713 51.4297C71.485 51.4297 71.9581 51.0589 72.3882 50.3123C72.7718 49.6906 73.0444 49.006 73.1934 48.2894C73.307 47.5816 73.378 46.8674 73.406 46.1509Z" fill="#D59D48"/>
<path d="M81.3506 45.2669L81.0519 46.418C80.584 46.2664 80.0954 46.19 79.604 46.1916C79.266 46.1819 78.9306 46.2543 78.6262 46.4026C78.3218 46.551 78.0573 46.771 77.855 47.0441C77.4141 47.6198 77.1822 48.3303 77.1979 49.0574C77.1695 49.6651 77.3308 50.2664 77.6591 50.7769C77.8133 50.9931 78.0192 51.1665 78.2577 51.281C78.4962 51.3956 78.7596 51.4475 79.0234 51.4319C79.7426 51.4053 80.4392 51.1713 81.0304 50.7576L80.8488 51.8437C80.3494 52.2675 79.6542 52.4819 78.7821 52.4819C77.8534 52.4819 77.1406 52.1495 76.6436 51.4849C76.1788 50.8276 75.9458 50.0323 75.9818 49.226C75.9584 48.157 76.3483 47.1208 77.0689 46.3361C77.7953 45.5414 78.7813 45.1401 80.0269 45.132C80.4717 45.1285 80.9155 45.1737 81.3506 45.2669Z" fill="#D59D48"/>
<path d="M88.5089 45.1757C88.5089 45.5818 88.4165 46.6623 88.2317 48.4171C88.0724 50.0226 87.9729 51.3069 87.933 52.2702L86.7049 52.3449C86.7412 51.8811 86.8026 51.4196 86.8889 50.9626C87.0132 50.2064 87.104 49.4695 87.1613 48.7518H87.0896C87.061 48.9927 86.8961 49.1179 86.595 49.1179C86.4541 49.1179 86.0933 49.1179 85.5151 49.0818C84.9368 49.0456 84.588 49.0456 84.4709 49.0456C84.3326 49.0339 84.1947 49.0726 84.0824 49.1549C83.9701 49.2371 83.8909 49.3573 83.8593 49.4936C83.7589 49.8259 83.6594 50.7515 83.5606 52.2702L82.3397 52.3449C82.4161 51.8793 82.5643 50.7378 82.7841 48.9204C82.8807 48.0246 82.9317 47.1243 82.937 46.2232C82.937 45.8764 82.9298 45.5778 82.9155 45.3274L84.1364 45.166C84.1364 45.402 84.0512 46.4801 83.8808 48.4002H83.9548C84.0074 48.1594 84.1938 48.0342 84.4924 48.0342C84.6191 48.0342 84.9703 48.0462 85.5437 48.0703C86.1172 48.0944 86.4756 48.1064 86.6165 48.1064C86.9893 48.1064 87.2163 47.8656 87.2927 47.4032C87.2927 47.3406 87.3142 46.9481 87.3286 46.2304C87.3312 45.9286 87.3144 45.627 87.2784 45.3274L88.5089 45.1757Z" fill="#D59D48"/>
<path d="M96.4869 48.1907C96.5084 49.3086 96.133 50.3975 95.4284 51.2612C95.097 51.683 94.6722 52.0208 94.188 52.2475C93.7038 52.4741 93.1737 52.5834 92.6401 52.5664C92.2645 52.567 91.8934 52.4842 91.5532 52.3239C91.2129 52.1637 90.9118 51.9299 90.6713 51.6393C90.1029 50.9712 89.8082 50.1102 89.847 49.2311C89.824 48.1378 90.1988 47.0739 90.9007 46.2401C91.243 45.8293 91.6738 45.5028 92.1603 45.2853C92.6469 45.0679 93.1763 44.9653 93.7081 44.9854C94.0786 44.9804 94.4458 45.0552 94.7853 45.2047C95.1248 45.3542 95.4288 45.575 95.6769 45.8523C96.2169 46.4255 96.4869 47.205 96.4869 48.1907ZM95.2516 48.4026C95.269 47.7845 95.108 47.1747 94.7881 46.647C94.6504 46.4173 94.4541 46.229 94.2196 46.1019C93.985 45.9748 93.7209 45.9136 93.4548 45.9246C93.1016 45.9228 92.7543 46.0169 92.4495 46.197C92.1447 46.3771 91.8937 46.6365 91.7226 46.9481C91.2979 47.6085 91.073 48.3791 91.0751 49.166C91.0599 49.7858 91.2261 50.3964 91.5529 50.9216C91.6938 51.1517 91.8929 51.3398 92.1297 51.4667C92.3665 51.5937 92.6325 51.6549 92.9005 51.6441C93.251 51.6444 93.595 51.5495 93.8965 51.3694C94.198 51.1893 94.4457 50.9306 94.6137 50.6206C95.036 49.9578 95.2576 49.1855 95.2516 48.3978V48.4026Z" fill="#D59D48"/>
<path d="M103.108 45.2669L102.809 46.418C102.341 46.2664 101.852 46.19 101.361 46.1916C101.023 46.1817 100.688 46.254 100.383 46.4024C100.079 46.5508 99.8142 46.7709 99.6121 47.0441C99.1705 47.6196 98.9378 48.3301 98.9526 49.0574C98.9249 49.6653 99.087 50.2667 99.4161 50.7769C99.5698 50.9931 99.7753 51.1665 100.013 51.2811C100.252 51.3956 100.515 51.4475 100.778 51.4319C101.498 51.405 102.195 51.171 102.787 50.7576L102.606 51.8437C102.107 52.2675 101.411 52.4819 100.539 52.4819C99.6073 52.4819 98.8945 52.1495 98.4007 51.4849C97.9359 50.8276 97.7029 50.0323 97.7388 49.226C97.7155 48.157 98.1053 47.1208 98.826 46.3361C99.5492 45.5414 100.535 45.1401 101.784 45.132C102.229 45.1285 102.673 45.1737 103.108 45.2669Z" fill="#D59D48"/>
<path d="M104.097 52.3544C104.436 49.837 104.606 48.1264 104.606 47.2225C104.599 46.5948 104.56 45.9678 104.489 45.3441L105.719 45.1611C105.748 45.5248 105.762 46.0931 105.762 46.8709H105.82C106.52 45.6813 107.362 45.0873 108.345 45.0889C109.363 45.0889 109.872 45.6829 109.872 46.8709H109.936C110.637 45.6813 111.477 45.0873 112.455 45.0889C113.054 45.0889 113.467 45.2647 113.695 45.6163C113.923 45.9679 114.035 46.4888 114.032 47.1792C114.032 47.6512 113.98 48.4692 113.876 49.6332C113.771 50.7963 113.719 51.6801 113.719 52.2822L112.455 52.3568C112.455 52.157 112.526 51.4586 112.67 50.2665C112.813 49.0745 112.882 48.2677 112.882 47.8583C112.882 47.1936 112.809 46.7361 112.663 46.4856C112.599 46.3688 112.504 46.272 112.389 46.2061C112.274 46.1402 112.143 46.1078 112.01 46.1124C111.446 46.1124 110.935 46.4776 110.476 47.2081C110.035 47.8847 109.758 48.6571 109.669 49.4622C109.567 50.5105 109.516 51.4538 109.516 52.2918L108.257 52.3665C108.257 52.157 108.338 51.4417 108.496 50.2256C108.615 49.4411 108.695 48.651 108.735 47.8583C108.735 47.1816 108.66 46.724 108.51 46.4784C108.445 46.3636 108.351 46.2688 108.237 46.2043C108.123 46.1398 107.993 46.108 107.862 46.1124C107.308 46.1124 106.798 46.4752 106.333 47.2009C105.887 47.8786 105.608 48.6538 105.519 49.4622C105.404 50.6615 105.324 51.6047 105.28 52.2918L104.097 52.3544Z" fill="#D59D48"/>
<path d="M122 45.1684C121.661 47.8881 121.491 49.6918 121.491 50.5797C121.494 51.1339 121.532 51.6873 121.606 52.2365L120.378 52.4195C120.349 51.9909 120.335 51.4201 120.335 50.7121H120.275C119.638 51.8986 118.77 52.4926 117.671 52.4942C116.406 52.4942 115.773 51.7677 115.773 50.3148C115.773 49.9295 115.828 49.1452 115.936 47.9619C116.044 46.7787 116.099 45.8957 116.101 45.3129L117.36 45.166C117.36 45.3779 117.283 46.0763 117.133 47.2684C117.006 48.1583 116.931 49.0548 116.908 49.9535C116.908 50.5267 117.011 50.924 117.217 51.1456C117.347 51.2663 117.5 51.3584 117.668 51.416C117.835 51.4736 118.013 51.4955 118.189 51.4803C118.717 51.4803 119.224 51.1287 119.711 50.4304C120.192 49.7519 120.487 48.9579 120.566 48.1281C120.684 46.9369 120.742 45.9985 120.741 45.3129L122 45.1684Z" fill="#D59D48"/>
</svg>
