<svg width="21" height="17" viewBox="0 0 21 17" fill="none" xmlns="http://www.w3.org/2000/svg">
<path d="M21.0001 3.07273H20.1939C19.8946 3.07273 19.4713 3.49794 19.4713 3.77017V13.637C19.4713 13.9095 19.8946 14.281 20.1939 14.281H21.0001V16.623H13.6962V14.281H15.2249V3.90917H15.15L11.5801 16.623H8.81631L5.29251 3.90917H5.20333V14.281H6.73205V16.623H0.617188V14.281H1.40019C1.72265 14.281 2.1459 13.9095 2.1459 13.637V3.77017C2.1459 3.49794 1.72265 3.07273 1.40019 3.07273H0.617188V0.730699H8.26355L10.774 9.93153H10.843L13.3767 0.730699H21.0001V3.07273Z" fill="#1F1F1F"/>
</svg>
